<?xml version="1.0" encoding="UTF-8" standalone="no"?><!DOCTYPE svg PUBLIC "-//W3C//DTD SVG 1.1//EN" "http://www.w3.org/Graphics/SVG/1.1/DTD/svg11.dtd"><svg width="100%" height="100%" viewBox="0 0 500 500" version="1.1" xmlns="http://www.w3.org/2000/svg" xmlns:xlink="http://www.w3.org/1999/xlink" xml:space="preserve" style="fill-rule:evenodd;clip-rule:evenodd;stroke-linecap:round;stroke-linejoin:round;stroke-miterlimit:1.5;"><path d="M158.41,148.635c-4.322,-30.802 3.479,-29.675 3.791,-43.326c0.312,-13.652 -3,-24.477 -3,-24.477c0,-0 -7.258,-8.949 -0.895,-13.582c6.362,-4.632 33.958,17.778 41.326,23.059c7.367,5.281 15.189,3.912 28.163,0.209c12.973,-3.703 18.057,0.548 26.058,-1.448c8.001,-1.995 29.154,-25.769 39.087,-24.61c9.933,1.158 1.798,10.236 1.448,17.372c-0.35,7.136 -11.083,16.804 -10.134,31.849c0.949,15.045 5.951,19.427 6.343,31.431c0.393,12.003 -13.059,38.009 -12.134,56.878c2.063,42.036 77.928,95.187 76.728,152.007c-1.201,56.819 -11.641,89.43 -30.402,102.785c-18.76,13.355 -51.356,31.969 -59.355,21.715c-7.998,-10.253 18.502,-9.824 17.373,-43.43c-1.13,-33.606 -36.026,-90.369 -34.745,-136.082c1.281,-45.714 31.237,-56.445 59.355,-108.577c26.082,-48.358 32.265,-96.049 31.849,-120.158c-0.385,-22.341 -5.074,-52.495 -18.82,-44.878c-18.186,10.079 -6.508,27.738 -4.343,62.251c2.134,34.016 -11.621,52.765 -31.458,87.411c-18.085,31.586 -64.887,64.758 -61.194,122.503c3.694,57.744 25.444,98.006 33.297,134.634c7.853,36.629 -12.591,36.725 -30.401,36.193c-18.913,-0.566 -64.418,-3.846 -70.937,-62.251c-6.519,-58.405 12.865,-80.607 17.373,-108.576c4.507,-27.969 -9.258,-24.775 -8.687,-53.564c0.572,-28.79 11.492,-28.745 10.134,-52.117c-1.358,-23.373 -12.826,-21.885 -15.82,-43.221Z" style="fill:none;stroke:#000;stroke-width:2px;"/></svg>